<svg xmlns="http://www.w3.org/2000/svg" viewBox="0 0 36 36" width="36" height="36">
  <style>
    :root {
      --bg-color: #d1fae5;
      --stroke-color: #059669;
    }
    @media (prefers-color-scheme: dark) {
      :root {
        --bg-color: rgba(2, 44, 34, 0.4);
        --stroke-color: #34d399;
      }
    }
    rect { fill: var(--bg-color); }
    path { stroke: var(--stroke-color); }
  </style>
  <rect width="36" height="36" rx="8" />
  <g transform="translate(8, 8) scale(0.833333)" stroke-width="2" stroke-linecap="round" stroke-linejoin="round" fill="none">
    <path d="M14 9.536V7a4 4 0 0 1 4-4h1.5a.5.5 0 0 1 .5.5V5a4 4 0 0 1-4 4 4 4 0 0 0-4 4c0 2 1 3 1 5a5 5 0 0 1-1 3" />
    <path d="M4 9a5 5 0 0 1 8 4 5 5 0 0 1-8-4" />
    <path d="M5 21h14" />
  </g>
</svg>
